<svg width="225" height="204" viewBox="0 0 225 204" fill="none" xmlns="http://www.w3.org/2000/svg">
<path d="M106.424 39.048L100.04 54H96.6316L103.064 39.432H94.8556V36.552H106.424V39.048ZM117.82 31.272L111.34 58.344H108.052L114.532 31.272H117.82ZM131.244 39.048L124.86 54H121.452L127.884 39.432H119.676V36.552H131.244V39.048Z" fill="white"/>
<path d="M112.909 83.5797C93.1591 83.5797 77 66.4839 77 45.5889C77 24.694 93.1591 7.59814 112.909 7.59814C121.348 7.59814 129.607 10.8274 136.07 16.7159L131.402 22.4145C126.375 17.6657 119.732 15.1963 112.909 15.1963C97.1091 15.1963 84.1818 28.873 84.1818 45.5889C84.1818 62.3049 97.1091 75.9816 112.909 75.9816V83.5797Z" fill="#CECECE"/>
<path d="M118.295 22.7945L103.932 11.3972L118.295 0V22.7945Z" fill="white"/>
<path d="M89.5682 45.5889C89.5682 46.7287 88.85 47.4885 87.7727 47.4885H82.3864V43.6894H87.7727C88.85 43.6894 89.5682 44.4492 89.5682 45.5889ZM112.909 70.2829C111.832 70.2829 111.114 71.0427 111.114 72.1825V77.8811H114.705V72.1825C114.705 71.0427 113.986 70.2829 112.909 70.2829ZM138.045 43.6894C136.968 43.6894 136.25 44.4492 136.25 45.5889C136.25 46.7287 136.968 47.4885 138.045 47.4885H143.432V43.6894H138.045Z" fill="#CECECE"/>
<path d="M112.909 83.5797C93.1591 83.5797 77 66.4839 77 45.5889C77 36.6611 80.0523 27.9232 85.6182 21.0849L91.0045 26.0237C86.5159 31.3424 84.1818 38.3707 84.1818 45.5889C84.1818 62.3049 97.1091 75.9816 112.909 75.9816C128.709 75.9816 141.636 62.3049 141.636 45.5889C141.636 28.873 128.709 15.1963 112.909 15.1963V7.59814C132.659 7.59814 148.818 24.694 148.818 45.5889C148.818 66.4839 132.659 83.5797 112.909 83.5797Z" fill="white"/>
<path d="M1.3843 147.2C1.3843 145.277 1.81363 143.56 2.6723 142.048C3.54963 140.517 4.73496 139.332 6.2283 138.492C7.7403 137.633 9.42963 137.204 11.2963 137.204C13.4803 137.204 15.3936 137.764 17.0363 138.884C18.679 140.004 19.827 141.553 20.4803 143.532H15.9723C15.5243 142.599 14.8896 141.899 14.0683 141.432C13.2656 140.965 12.3323 140.732 11.2683 140.732C10.1296 140.732 9.1123 141.003 8.2163 141.544C7.33896 142.067 6.6483 142.813 6.1443 143.784C5.65896 144.755 5.4163 145.893 5.4163 147.2C5.4163 148.488 5.65896 149.627 6.1443 150.616C6.6483 151.587 7.33896 152.343 8.2163 152.884C9.1123 153.407 10.1296 153.668 11.2683 153.668C12.3323 153.668 13.2656 153.435 14.0683 152.968C14.8896 152.483 15.5243 151.773 15.9723 150.84H20.4803C19.827 152.837 18.679 154.396 17.0363 155.516C15.4123 156.617 13.499 157.168 11.2963 157.168C9.42963 157.168 7.7403 156.748 6.2283 155.908C4.73496 155.049 3.54963 153.864 2.6723 152.352C1.81363 150.84 1.3843 149.123 1.3843 147.2ZM30.7165 157.252C29.2232 157.252 27.8792 156.925 26.6845 156.272C25.4898 155.6 24.5472 154.657 23.8565 153.444C23.1845 152.231 22.8485 150.831 22.8485 149.244C22.8485 147.657 23.1938 146.257 23.8845 145.044C24.5938 143.831 25.5552 142.897 26.7685 142.244C27.9818 141.572 29.3352 141.236 30.8285 141.236C32.3218 141.236 33.6752 141.572 34.8885 142.244C36.1018 142.897 37.0538 143.831 37.7445 145.044C38.4538 146.257 38.8085 147.657 38.8085 149.244C38.8085 150.831 38.4445 152.231 37.7165 153.444C37.0072 154.657 36.0365 155.6 34.8045 156.272C33.5912 156.925 32.2285 157.252 30.7165 157.252ZM30.7165 153.836C31.4258 153.836 32.0885 153.668 32.7045 153.332C33.3392 152.977 33.8432 152.455 34.2165 151.764C34.5898 151.073 34.7765 150.233 34.7765 149.244C34.7765 147.769 34.3845 146.64 33.6005 145.856C32.8352 145.053 31.8925 144.652 30.7725 144.652C29.6525 144.652 28.7098 145.053 27.9445 145.856C27.1978 146.64 26.8245 147.769 26.8245 149.244C26.8245 150.719 27.1885 151.857 27.9165 152.66C28.6632 153.444 29.5965 153.836 30.7165 153.836ZM50.28 141.264C52.128 141.264 53.6213 141.852 54.76 143.028C55.8986 144.185 56.468 145.809 56.468 147.9V157H52.548V148.432C52.548 147.2 52.24 146.257 51.624 145.604C51.008 144.932 50.168 144.596 49.104 144.596C48.0213 144.596 47.1626 144.932 46.528 145.604C45.912 146.257 45.604 147.2 45.604 148.432V157H41.684V141.488H45.604V143.42C46.1266 142.748 46.7893 142.225 47.592 141.852C48.4133 141.46 49.3093 141.264 50.28 141.264ZM64.7597 144.708V152.212C64.7597 152.735 64.881 153.117 65.1237 153.36C65.385 153.584 65.8143 153.696 66.4117 153.696H68.2317V157H65.7677C62.4637 157 60.8117 155.395 60.8117 152.184V144.708H58.9637V141.488H60.8117V137.652H64.7597V141.488H68.2317V144.708H64.7597ZM70.0431 149.188C70.0431 147.62 70.3511 146.229 70.9671 145.016C71.6018 143.803 72.4511 142.869 73.5151 142.216C74.5978 141.563 75.8018 141.236 77.1271 141.236C78.2845 141.236 79.2925 141.469 80.1511 141.936C81.0285 142.403 81.7285 142.991 82.2511 143.7V141.488H86.1991V157H82.2511V154.732C81.7471 155.46 81.0471 156.067 80.1511 156.552C79.2738 157.019 78.2565 157.252 77.0991 157.252C75.7925 157.252 74.5978 156.916 73.5151 156.244C72.4511 155.572 71.6018 154.629 70.9671 153.416C70.3511 152.184 70.0431 150.775 70.0431 149.188ZM82.2511 149.244C82.2511 148.292 82.0645 147.48 81.6911 146.808C81.3178 146.117 80.8138 145.595 80.1791 145.24C79.5445 144.867 78.8631 144.68 78.1351 144.68C77.4071 144.68 76.7351 144.857 76.1191 145.212C75.5031 145.567 74.9991 146.089 74.6071 146.78C74.2338 147.452 74.0471 148.255 74.0471 149.188C74.0471 150.121 74.2338 150.943 74.6071 151.652C74.9991 152.343 75.5031 152.875 76.1191 153.248C76.7538 153.621 77.4258 153.808 78.1351 153.808C78.8631 153.808 79.5445 153.631 80.1791 153.276C80.8138 152.903 81.3178 152.38 81.6911 151.708C82.0645 151.017 82.2511 150.196 82.2511 149.244ZM89.0197 149.244C89.0197 147.639 89.3464 146.239 89.9997 145.044C90.653 143.831 91.5584 142.897 92.7157 142.244C93.873 141.572 95.1984 141.236 96.6917 141.236C98.6144 141.236 100.201 141.721 101.452 142.692C102.721 143.644 103.57 144.988 104 146.724H99.7717C99.5477 146.052 99.165 145.529 98.6237 145.156C98.101 144.764 97.4477 144.568 96.6637 144.568C95.5437 144.568 94.657 144.979 94.0037 145.8C93.3504 146.603 93.0237 147.751 93.0237 149.244C93.0237 150.719 93.3504 151.867 94.0037 152.688C94.657 153.491 95.5437 153.892 96.6637 153.892C98.2504 153.892 99.2864 153.183 99.7717 151.764H104C103.57 153.444 102.721 154.779 101.452 155.768C100.182 156.757 98.5957 157.252 96.6917 157.252C95.1984 157.252 93.873 156.925 92.7157 156.272C91.5584 155.6 90.653 154.667 89.9997 153.472C89.3464 152.259 89.0197 150.849 89.0197 149.244ZM111.435 144.708V152.212C111.435 152.735 111.557 153.117 111.799 153.36C112.061 153.584 112.49 153.696 113.087 153.696H114.907V157H112.443C109.139 157 107.487 155.395 107.487 152.184V144.708H105.639V141.488H107.487V137.652H111.435V141.488H114.907V144.708H111.435ZM132.147 148.908C132.147 149.468 132.11 149.972 132.035 150.42H120.695C120.788 151.54 121.18 152.417 121.871 153.052C122.562 153.687 123.411 154.004 124.419 154.004C125.875 154.004 126.911 153.379 127.527 152.128H131.755C131.307 153.621 130.448 154.853 129.179 155.824C127.91 156.776 126.351 157.252 124.503 157.252C123.01 157.252 121.666 156.925 120.471 156.272C119.295 155.6 118.371 154.657 117.699 153.444C117.046 152.231 116.719 150.831 116.719 149.244C116.719 147.639 117.046 146.229 117.699 145.016C118.352 143.803 119.267 142.869 120.443 142.216C121.619 141.563 122.972 141.236 124.503 141.236C125.978 141.236 127.294 141.553 128.451 142.188C129.627 142.823 130.532 143.728 131.167 144.904C131.82 146.061 132.147 147.396 132.147 148.908ZM128.087 147.788C128.068 146.78 127.704 145.977 126.995 145.38C126.286 144.764 125.418 144.456 124.391 144.456C123.42 144.456 122.599 144.755 121.927 145.352C121.274 145.931 120.872 146.743 120.723 147.788H128.087ZM138.592 153.78H145.508V157H134.14V153.836L140.916 144.708H134.168V141.488H145.424V144.652L138.592 153.78ZM160.471 145.352V148.656H148.599V145.352H160.471ZM190.803 141.264C192.707 141.264 194.238 141.852 195.395 143.028C196.571 144.185 197.159 145.809 197.159 147.9V157H193.239V148.432C193.239 147.219 192.931 146.295 192.315 145.66C191.699 145.007 190.859 144.68 189.795 144.68C188.731 144.68 187.882 145.007 187.247 145.66C186.631 146.295 186.323 147.219 186.323 148.432V157H182.403V148.432C182.403 147.219 182.095 146.295 181.479 145.66C180.863 145.007 180.023 144.68 178.959 144.68C177.877 144.68 177.018 145.007 176.383 145.66C175.767 146.295 175.459 147.219 175.459 148.432V157H171.539V141.488H175.459V143.364C175.963 142.711 176.607 142.197 177.391 141.824C178.194 141.451 179.071 141.264 180.023 141.264C181.237 141.264 182.319 141.525 183.271 142.048C184.223 142.552 184.961 143.28 185.483 144.232C185.987 143.336 186.715 142.617 187.667 142.076C188.638 141.535 189.683 141.264 190.803 141.264ZM207.767 157.252C206.274 157.252 204.93 156.925 203.735 156.272C202.541 155.6 201.598 154.657 200.907 153.444C200.235 152.231 199.899 150.831 199.899 149.244C199.899 147.657 200.245 146.257 200.935 145.044C201.645 143.831 202.606 142.897 203.819 142.244C205.033 141.572 206.386 141.236 207.879 141.236C209.373 141.236 210.726 141.572 211.939 142.244C213.153 142.897 214.105 143.831 214.795 145.044C215.505 146.257 215.859 147.657 215.859 149.244C215.859 150.831 215.495 152.231 214.767 153.444C214.058 154.657 213.087 155.6 211.855 156.272C210.642 156.925 209.279 157.252 207.767 157.252ZM207.767 153.836C208.477 153.836 209.139 153.668 209.755 153.332C210.39 152.977 210.894 152.455 211.267 151.764C211.641 151.073 211.827 150.233 211.827 149.244C211.827 147.769 211.435 146.64 210.651 145.856C209.886 145.053 208.943 144.652 207.823 144.652C206.703 144.652 205.761 145.053 204.995 145.856C204.249 146.64 203.875 147.769 203.875 149.244C203.875 150.719 204.239 151.857 204.967 152.66C205.714 153.444 206.647 153.836 207.767 153.836ZM220.723 139.64C220.032 139.64 219.453 139.425 218.987 138.996C218.539 138.548 218.315 137.997 218.315 137.344C218.315 136.691 218.539 136.149 218.987 135.72C219.453 135.272 220.032 135.048 220.723 135.048C221.413 135.048 221.983 135.272 222.431 135.72C222.897 136.149 223.131 136.691 223.131 137.344C223.131 137.997 222.897 138.548 222.431 138.996C221.983 139.425 221.413 139.64 220.723 139.64ZM222.655 141.488V157H218.735V141.488H222.655Z" fill="black"/>
<path d="M43.3072 185.024C43.3072 182.256 43.8032 180.088 44.7952 178.52C45.8032 176.952 47.4672 176.168 49.7872 176.168C52.1072 176.168 53.7632 176.952 54.7552 178.52C55.7632 180.088 56.2672 182.256 56.2672 185.024C56.2672 187.808 55.7632 189.992 54.7552 191.576C53.7632 193.16 52.1072 193.952 49.7872 193.952C47.4672 193.952 45.8032 193.16 44.7952 191.576C43.8032 189.992 43.3072 187.808 43.3072 185.024ZM52.9552 185.024C52.9552 183.84 52.8752 182.848 52.7152 182.048C52.5712 181.232 52.2672 180.568 51.8032 180.056C51.3552 179.544 50.6832 179.288 49.7872 179.288C48.8912 179.288 48.2112 179.544 47.7472 180.056C47.2992 180.568 46.9952 181.232 46.8352 182.048C46.6912 182.848 46.6192 183.84 46.6192 185.024C46.6192 186.24 46.6912 187.264 46.8352 188.096C46.9792 188.912 47.2832 189.576 47.7472 190.088C48.2112 190.584 48.8912 190.832 49.7872 190.832C50.6832 190.832 51.3632 190.584 51.8272 190.088C52.2912 189.576 52.5952 188.912 52.7392 188.096C52.8832 187.264 52.9552 186.24 52.9552 185.024ZM69.9588 179.048L63.5748 194H60.1668L66.5988 179.432H58.3908V176.552H69.9588V179.048ZM80.618 184.736C79.018 183.904 78.218 182.616 78.218 180.872C78.218 180.008 78.434 179.224 78.866 178.52C79.314 177.8 79.978 177.232 80.858 176.816C81.754 176.384 82.842 176.168 84.122 176.168C85.402 176.168 86.482 176.384 87.362 176.816C88.258 177.232 88.922 177.8 89.354 178.52C89.802 179.224 90.026 180.008 90.026 180.872C90.026 181.752 89.81 182.528 89.378 183.2C88.946 183.856 88.37 184.368 87.65 184.736C88.53 185.12 89.218 185.68 89.714 186.416C90.21 187.152 90.458 188.024 90.458 189.032C90.458 190.12 90.178 191.072 89.618 191.888C89.074 192.688 88.322 193.304 87.362 193.736C86.402 194.168 85.322 194.384 84.122 194.384C82.922 194.384 81.842 194.168 80.882 193.736C79.938 193.304 79.186 192.688 78.626 191.888C78.082 191.072 77.81 190.12 77.81 189.032C77.81 188.024 78.058 187.152 78.554 186.416C79.05 185.664 79.738 185.104 80.618 184.736ZM86.762 181.352C86.762 180.568 86.522 179.96 86.042 179.528C85.578 179.096 84.938 178.88 84.122 178.88C83.322 178.88 82.682 179.096 82.202 179.528C81.738 179.96 81.506 180.576 81.506 181.376C81.506 182.096 81.746 182.672 82.226 183.104C82.722 183.536 83.354 183.752 84.122 183.752C84.89 183.752 85.522 183.536 86.018 183.104C86.514 182.656 86.762 182.072 86.762 181.352ZM84.122 186.2C83.21 186.2 82.466 186.432 81.89 186.896C81.33 187.36 81.05 188.024 81.05 188.888C81.05 189.688 81.322 190.344 81.866 190.856C82.426 191.352 83.178 191.6 84.122 191.6C85.066 191.6 85.81 191.344 86.354 190.832C86.898 190.32 87.17 189.672 87.17 188.888C87.17 188.04 86.89 187.384 86.33 186.92C85.77 186.44 85.034 186.2 84.122 186.2ZM96.0398 184.736C94.4398 183.904 93.6398 182.616 93.6398 180.872C93.6398 180.008 93.8558 179.224 94.2878 178.52C94.7358 177.8 95.3998 177.232 96.2798 176.816C97.1758 176.384 98.2638 176.168 99.5438 176.168C100.824 176.168 101.904 176.384 102.784 176.816C103.68 177.232 104.344 177.8 104.776 178.52C105.224 179.224 105.448 180.008 105.448 180.872C105.448 181.752 105.232 182.528 104.8 183.2C104.368 183.856 103.792 184.368 103.072 184.736C103.952 185.12 104.64 185.68 105.136 186.416C105.632 187.152 105.88 188.024 105.88 189.032C105.88 190.12 105.6 191.072 105.04 191.888C104.496 192.688 103.744 193.304 102.784 193.736C101.824 194.168 100.744 194.384 99.5438 194.384C98.3438 194.384 97.2638 194.168 96.3038 193.736C95.3598 193.304 94.6078 192.688 94.0478 191.888C93.5038 191.072 93.2318 190.12 93.2318 189.032C93.2318 188.024 93.4798 187.152 93.9758 186.416C94.4718 185.664 95.1598 185.104 96.0398 184.736ZM102.184 181.352C102.184 180.568 101.944 179.96 101.464 179.528C101 179.096 100.36 178.88 99.5438 178.88C98.7438 178.88 98.1038 179.096 97.6238 179.528C97.1598 179.96 96.9278 180.576 96.9278 181.376C96.9278 182.096 97.1678 182.672 97.6478 183.104C98.1438 183.536 98.7758 183.752 99.5438 183.752C100.312 183.752 100.944 183.536 101.44 183.104C101.936 182.656 102.184 182.072 102.184 181.352ZM99.5438 186.2C98.6318 186.2 97.8878 186.432 97.3118 186.896C96.7518 187.36 96.4718 188.024 96.4718 188.888C96.4718 189.688 96.7438 190.344 97.2878 190.856C97.8478 191.352 98.5998 191.6 99.5438 191.6C100.488 191.6 101.232 191.344 101.776 190.832C102.32 190.32 102.592 189.672 102.592 188.888C102.592 188.04 102.312 187.384 101.752 186.92C101.192 186.44 100.456 186.2 99.5438 186.2ZM126.012 179.408H118.236V183.512C118.572 183.096 119.052 182.76 119.676 182.504C120.3 182.232 120.964 182.096 121.668 182.096C122.948 182.096 123.996 182.376 124.812 182.936C125.628 183.496 126.22 184.216 126.588 185.096C126.956 185.96 127.14 186.888 127.14 187.88C127.14 189.72 126.612 191.2 125.556 192.32C124.516 193.44 123.028 194 121.092 194C119.268 194 117.812 193.544 116.724 192.632C115.636 191.72 115.02 190.528 114.876 189.056H118.14C118.284 189.696 118.604 190.208 119.1 190.592C119.612 190.976 120.26 191.168 121.044 191.168C121.988 191.168 122.7 190.872 123.18 190.28C123.66 189.688 123.9 188.904 123.9 187.928C123.9 186.936 123.652 186.184 123.156 185.672C122.676 185.144 121.964 184.88 121.02 184.88C120.348 184.88 119.788 185.048 119.34 185.384C118.892 185.72 118.572 186.168 118.38 186.728H115.164V176.456H126.012V179.408ZM133.586 189.08C133.714 189.784 134.002 190.328 134.45 190.712C134.914 191.08 135.53 191.264 136.298 191.264C137.29 191.264 138.01 190.856 138.458 190.04C138.906 189.208 139.13 187.816 139.13 185.864C138.762 186.376 138.242 186.776 137.57 187.064C136.914 187.352 136.202 187.496 135.434 187.496C134.41 187.496 133.482 187.288 132.65 186.872C131.834 186.44 131.186 185.808 130.706 184.976C130.226 184.128 129.986 183.104 129.986 181.904C129.986 180.128 130.514 178.72 131.57 177.68C132.626 176.624 134.066 176.096 135.89 176.096C138.162 176.096 139.762 176.824 140.69 178.28C141.634 179.736 142.106 181.928 142.106 184.856C142.106 186.936 141.922 188.64 141.554 189.968C141.202 191.296 140.586 192.304 139.706 192.992C138.842 193.68 137.658 194.024 136.154 194.024C134.97 194.024 133.962 193.8 133.13 193.352C132.298 192.888 131.658 192.288 131.21 191.552C130.778 190.8 130.53 189.976 130.466 189.08H133.586ZM136.13 184.76C136.962 184.76 137.618 184.504 138.098 183.992C138.578 183.48 138.818 182.792 138.818 181.928C138.818 180.984 138.562 180.256 138.05 179.744C137.554 179.216 136.874 178.952 136.01 178.952C135.146 178.952 134.458 179.224 133.946 179.768C133.45 180.296 133.202 181 133.202 181.88C133.202 182.728 133.442 183.424 133.922 183.968C134.418 184.496 135.154 184.76 136.13 184.76ZM159.512 180.872C159.352 180.2 159.072 179.696 158.672 179.36C158.288 179.024 157.728 178.856 156.992 178.856C155.888 178.856 155.072 179.304 154.544 180.2C154.032 181.08 153.768 182.52 153.752 184.52C154.136 183.88 154.696 183.384 155.432 183.032C156.168 182.664 156.968 182.48 157.832 182.48C158.872 182.48 159.792 182.704 160.592 183.152C161.392 183.6 162.016 184.256 162.464 185.12C162.912 185.968 163.136 186.992 163.136 188.192C163.136 189.328 162.904 190.344 162.44 191.24C161.992 192.12 161.328 192.808 160.448 193.304C159.568 193.8 158.52 194.048 157.304 194.048C155.64 194.048 154.328 193.68 153.368 192.944C152.424 192.208 151.76 191.184 151.376 189.872C151.008 188.544 150.824 186.912 150.824 184.976C150.824 182.048 151.328 179.84 152.336 178.352C153.344 176.848 154.936 176.096 157.112 176.096C158.792 176.096 160.096 176.552 161.024 177.464C161.952 178.376 162.488 179.512 162.632 180.872H159.512ZM157.064 185.24C156.216 185.24 155.504 185.488 154.928 185.984C154.352 186.48 154.064 187.2 154.064 188.144C154.064 189.088 154.328 189.832 154.856 190.376C155.4 190.92 156.16 191.192 157.136 191.192C158 191.192 158.68 190.928 159.176 190.4C159.688 189.872 159.944 189.16 159.944 188.264C159.944 187.336 159.696 186.6 159.2 186.056C158.72 185.512 158.008 185.24 157.064 185.24ZM169.68 189.08C169.808 189.784 170.096 190.328 170.544 190.712C171.008 191.08 171.624 191.264 172.392 191.264C173.384 191.264 174.104 190.856 174.552 190.04C175 189.208 175.224 187.816 175.224 185.864C174.856 186.376 174.336 186.776 173.664 187.064C173.008 187.352 172.296 187.496 171.528 187.496C170.504 187.496 169.576 187.288 168.744 186.872C167.928 186.44 167.28 185.808 166.8 184.976C166.32 184.128 166.08 183.104 166.08 181.904C166.08 180.128 166.608 178.72 167.664 177.68C168.72 176.624 170.16 176.096 171.984 176.096C174.256 176.096 175.856 176.824 176.784 178.28C177.728 179.736 178.2 181.928 178.2 184.856C178.2 186.936 178.016 188.64 177.648 189.968C177.296 191.296 176.68 192.304 175.8 192.992C174.936 193.68 173.752 194.024 172.248 194.024C171.064 194.024 170.056 193.8 169.224 193.352C168.392 192.888 167.752 192.288 167.304 191.552C166.872 190.8 166.624 189.976 166.56 189.08H169.68ZM172.224 184.76C173.056 184.76 173.712 184.504 174.192 183.992C174.672 183.48 174.912 182.792 174.912 181.928C174.912 180.984 174.656 180.256 174.144 179.744C173.648 179.216 172.968 178.952 172.104 178.952C171.24 178.952 170.552 179.224 170.04 179.768C169.544 180.296 169.296 181 169.296 181.88C169.296 182.728 169.536 183.424 170.016 183.968C170.512 184.496 171.248 184.76 172.224 184.76ZM195.606 180.872C195.446 180.2 195.166 179.696 194.766 179.36C194.382 179.024 193.822 178.856 193.086 178.856C191.982 178.856 191.166 179.304 190.638 180.2C190.126 181.08 189.862 182.52 189.846 184.52C190.23 183.88 190.79 183.384 191.526 183.032C192.262 182.664 193.062 182.48 193.926 182.48C194.966 182.48 195.886 182.704 196.686 183.152C197.486 183.6 198.11 184.256 198.558 185.12C199.006 185.968 199.23 186.992 199.23 188.192C199.23 189.328 198.998 190.344 198.534 191.24C198.086 192.12 197.422 192.808 196.542 193.304C195.662 193.8 194.614 194.048 193.398 194.048C191.734 194.048 190.422 193.68 189.462 192.944C188.518 192.208 187.854 191.184 187.47 189.872C187.102 188.544 186.918 186.912 186.918 184.976C186.918 182.048 187.422 179.84 188.43 178.352C189.438 176.848 191.03 176.096 193.206 176.096C194.886 176.096 196.19 176.552 197.118 177.464C198.046 178.376 198.582 179.512 198.726 180.872H195.606ZM193.158 185.24C192.31 185.24 191.598 185.488 191.022 185.984C190.446 186.48 190.158 187.2 190.158 188.144C190.158 189.088 190.422 189.832 190.95 190.376C191.494 190.92 192.254 191.192 193.23 191.192C194.094 191.192 194.774 190.928 195.27 190.4C195.782 189.872 196.038 189.16 196.038 188.264C196.038 187.336 195.79 186.6 195.294 186.056C194.814 185.512 194.102 185.24 193.158 185.24ZM210.957 180.872C210.797 180.2 210.517 179.696 210.117 179.36C209.733 179.024 209.173 178.856 208.437 178.856C207.333 178.856 206.517 179.304 205.989 180.2C205.477 181.08 205.213 182.52 205.197 184.52C205.581 183.88 206.141 183.384 206.877 183.032C207.613 182.664 208.413 182.48 209.277 182.48C210.317 182.48 211.237 182.704 212.037 183.152C212.837 183.6 213.461 184.256 213.909 185.12C214.357 185.968 214.581 186.992 214.581 188.192C214.581 189.328 214.349 190.344 213.885 191.24C213.437 192.12 212.773 192.808 211.893 193.304C211.013 193.8 209.965 194.048 208.749 194.048C207.085 194.048 205.773 193.68 204.813 192.944C203.869 192.208 203.205 191.184 202.821 189.872C202.453 188.544 202.269 186.912 202.269 184.976C202.269 182.048 202.773 179.84 203.781 178.352C204.789 176.848 206.381 176.096 208.557 176.096C210.237 176.096 211.541 176.552 212.469 177.464C213.397 178.376 213.933 179.512 214.077 180.872H210.957ZM208.509 185.24C207.661 185.24 206.949 185.488 206.373 185.984C205.797 186.48 205.509 187.2 205.509 188.144C205.509 189.088 205.773 189.832 206.301 190.376C206.845 190.92 207.605 191.192 208.581 191.192C209.445 191.192 210.125 190.928 210.621 190.4C211.133 189.872 211.389 189.16 211.389 188.264C211.389 187.336 211.141 186.6 210.645 186.056C210.165 185.512 209.453 185.24 208.509 185.24Z" fill="white"/>
<path d="M28.395 188.504C28.0431 188.298 27.6107 188.302 27.2605 188.51L25.4873 189.566C25.0904 189.803 24.5947 189.775 24.2307 189.491C23.6015 189 22.5883 188.173 21.7069 187.291C20.8255 186.41 19.9987 185.397 19.5073 184.768C19.2231 184.404 19.1953 183.908 19.4319 183.511L20.4884 181.738C20.6973 181.388 20.699 180.952 20.4927 180.6L17.891 176.156C17.6388 175.726 17.1379 175.514 16.6534 175.633C16.1828 175.747 15.5718 176.026 14.9313 176.668C12.9259 178.673 11.8607 182.056 19.4025 189.598C26.9442 197.139 30.3259 196.075 32.3323 194.069C32.9745 193.426 33.2527 192.815 33.3679 192.343C33.4849 191.86 33.2769 191.362 32.8479 191.111C31.7767 190.484 29.4662 189.131 28.395 188.504Z" fill="white"/>
</svg>
