<svg width="26" height="26" viewBox="0 0 26 26" fill="none" xmlns="http://www.w3.org/2000/svg">
<path d="M18.395 15.5038C18.0431 15.2975 17.6107 15.3019 17.2605 15.5099L15.4873 16.5663C15.0904 16.8029 14.5947 16.7752 14.2307 16.4909C13.6015 15.9995 12.5883 15.1727 11.7069 14.2913C10.8255 13.4099 9.99875 12.3968 9.50735 11.7676C9.22308 11.4036 9.19535 10.9079 9.43195 10.5109L10.4884 8.73772C10.6973 8.38759 10.699 7.95165 10.4927 7.59979L7.89101 3.15552C7.63881 2.72565 7.13788 2.51419 6.65341 2.63292C6.18281 2.74732 5.57181 3.02639 4.93135 3.66772C2.92588 5.67319 1.86075 9.05579 9.40248 16.5975C16.9442 24.1393 20.3259 23.075 22.3323 21.0687C22.9745 20.4265 23.2527 19.8146 23.3679 19.3431C23.4849 18.8595 23.2769 18.3621 22.8479 18.1107C21.7767 17.4841 19.4662 16.1313 18.395 15.5038Z" fill="#FE9101"/>
</svg>
