<svg xmlns="http://www.w3.org/2000/svg" viewBox="0 0 16 16"><path d="M11 14a5.998 5.998 0 01-5.188-3h2.36l-2-2H5.09A5.988 5.988 0 015 8c0-.054.013-.104.014-.158L2.172 5H2v2h1.07c-.042.328-.07.66-.07 1s.028.672.07 1H2v2h1.589c1.19 2.928 4.061 5 7.411 5 .628 0 1.295-.083 1.94-.231l-1.783-1.784c-.053.002-.104.015-.157.015zM11.5 10.086V9h-1.086l-2-2H11.5V5H6.414l-.36-.36C7.133 3.052 8.94 2 11 2c.734 0 1.462.138 2.162.41L14 .543A8.578 8.578 0 0011 0C8.39 0 6.076 1.262 4.618 3.204L1.414 0 0 1.414 14.586 16 16 14.586l-4.5-4.5z"/></svg>