<svg width="72" height="79" viewBox="0 0 72 79" fill="none" xmlns="http://www.w3.org/2000/svg">
<path d="M29.2417 36.048L22.8577 51H19.4497L25.8817 36.432H17.6737V33.552H29.2417V36.048ZM40.6382 28.272L34.1582 55.344H30.8702L37.3502 28.272H40.6382ZM54.0621 36.048L47.6781 51H44.2701L50.7021 36.432H42.4941V33.552H54.0621V36.048Z" fill="black"/>
<path d="M35.9091 79C16.1591 79 0 62.8409 0 43.0909C0 23.3409 16.1591 7.18182 35.9091 7.18182C44.3477 7.18182 52.6068 10.2341 59.0705 15.8L54.4023 21.1864C49.375 16.6977 42.7318 14.3636 35.9091 14.3636C20.1091 14.3636 7.18182 27.2909 7.18182 43.0909C7.18182 58.8909 20.1091 71.8182 35.9091 71.8182V79Z" fill="#FE9101" fill-opacity="0.34"/>
<path d="M41.2955 21.5455L26.9319 10.7727L41.2955 0V21.5455Z" fill="#FE9101"/>
<path d="M12.5683 43.0909C12.5683 44.1682 11.8501 44.8864 10.7728 44.8864H5.38647V41.2955H10.7728C11.8501 41.2955 12.5683 42.0136 12.5683 43.0909ZM35.9092 66.4318C34.8319 66.4318 34.1137 67.15 34.1137 68.2273V73.6136H37.7047V68.2273C37.7047 67.15 36.9865 66.4318 35.9092 66.4318ZM61.0456 41.2955C59.9683 41.2955 59.2501 42.0136 59.2501 43.0909C59.2501 44.1682 59.9683 44.8864 61.0456 44.8864H66.4319V41.2955H61.0456Z" fill="#FE9101" fill-opacity="0.34"/>
<path d="M35.9091 79C16.1591 79 0 62.8409 0 43.0909C0 34.6523 3.05227 26.3932 8.61818 19.9295L14.0045 24.5977C9.51591 29.625 7.18182 36.2682 7.18182 43.0909C7.18182 58.8909 20.1091 71.8182 35.9091 71.8182C51.7091 71.8182 64.6364 58.8909 64.6364 43.0909C64.6364 27.2909 51.7091 14.3636 35.9091 14.3636V7.18182C55.6591 7.18182 71.8182 23.3409 71.8182 43.0909C71.8182 62.8409 55.6591 79 35.9091 79Z" fill="#FE9101"/>
</svg>
