<svg width="124" height="124" viewBox="0 0 124 124" fill="none" xmlns="http://www.w3.org/2000/svg">
<path d="M13.8854 36.1667C13.3405 36.2474 12.7754 36.53 12.4323 36.974L10.0104 40.2031C9.30404 41.0911 9.28385 42.4635 10.1719 43.2708L15.5 49.0833V74.9167C15.5 76.3698 14.3698 77.5 12.9167 77.5C11.4635 77.5 10.3333 76.3698 10.3333 74.9167C10.3535 73.9883 9.84896 73.1204 9.06185 72.6562C8.25456 72.1719 7.24544 72.1719 6.43815 72.6562C5.65104 73.1204 5.14649 73.9883 5.16667 74.9167C5.16667 79.1751 8.6582 82.6667 12.9167 82.6667C17.1751 82.6667 20.6667 79.1751 20.6667 74.9167V54.7344L41.3333 77.1771V87.8333H4.52083C2.03841 87.8333 0 89.8717 0 92.3542V103.979C0 106.462 2.03841 108.5 4.52083 108.5H15.5C15.5 117.057 22.4427 124 31 124C39.5573 124 46.5 117.057 46.5 108.5H82.6667C82.6667 117.057 89.6094 124 98.1667 124C106.724 124 113.667 117.057 113.667 108.5H120.609C121.074 108.5 121.497 108.359 121.901 108.177C122.708 107.834 123.334 107.208 123.677 106.401C123.859 105.997 124 105.574 124 105.109V78.4688C124 77.8027 123.717 77.2578 123.354 76.6927L104.302 47.9531C103.676 47.0247 102.688 46.5 101.557 46.5H75.724C73.8672 46.5 72.3333 48.0137 72.3333 49.8906V87.8333H67.1667V76.8542C67.1667 73.3828 66.763 71.849 64.7448 70.3958C62.7266 68.9427 15.5 36.4896 15.5 36.4896C14.9954 36.1465 14.4303 36.0859 13.8854 36.1667ZM87.8333 56.8333H100.911L114.635 77.5H87.8333V56.8333ZM31 100.75C35.2786 100.75 38.75 104.221 38.75 108.5C38.75 112.779 35.2786 116.25 31 116.25C26.7214 116.25 23.25 112.779 23.25 108.5C23.25 104.221 26.7214 100.75 31 100.75ZM98.1667 100.75C102.445 100.75 105.917 104.221 105.917 108.5C105.917 112.779 102.445 116.25 98.1667 116.25C93.888 116.25 90.4167 112.779 90.4167 108.5C90.4167 104.221 93.888 100.75 98.1667 100.75Z" fill="black"/>
</svg>
