<svg width="182" height="172" viewBox="0 0 182 172" fill="none" xmlns="http://www.w3.org/2000/svg">
<path d="M27.7308 9.248C29.4908 9.248 31.0348 9.592 32.3628 10.28C33.7068 10.968 34.7388 11.952 35.4588 13.232C36.1948 14.496 36.5628 15.968 36.5628 17.648C36.5628 19.328 36.1948 20.8 35.4588 22.064C34.7388 23.312 33.7068 24.28 32.3628 24.968C31.0348 25.656 29.4908 26 27.7308 26H21.8748V9.248H27.7308ZM27.6108 23.144C29.3708 23.144 30.7308 22.664 31.6908 21.704C32.6508 20.744 33.1308 19.392 33.1308 17.648C33.1308 15.904 32.6508 14.544 31.6908 13.568C30.7308 12.576 29.3708 12.08 27.6108 12.08H25.2348V23.144H27.6108ZM51.4379 19.064C51.4379 19.544 51.4059 19.976 51.3419 20.36H41.6219C41.7019 21.32 42.0379 22.072 42.6299 22.616C43.2219 23.16 43.9499 23.432 44.8139 23.432C46.0619 23.432 46.9499 22.896 47.4779 21.824H51.1019C50.7179 23.104 49.9819 24.16 48.8939 24.992C47.8059 25.808 46.4699 26.216 44.8859 26.216C43.6059 26.216 42.4539 25.936 41.4299 25.376C40.4219 24.8 39.6299 23.992 39.0539 22.952C38.4939 21.912 38.2139 20.712 38.2139 19.352C38.2139 17.976 38.4939 16.768 39.0539 15.728C39.6139 14.688 40.3979 13.888 41.4059 13.328C42.4139 12.768 43.5739 12.488 44.8859 12.488C46.1499 12.488 47.2779 12.76 48.2699 13.304C49.2779 13.848 50.0539 14.624 50.5979 15.632C51.1579 16.624 51.4379 17.768 51.4379 19.064ZM47.9579 18.104C47.9419 17.24 47.6299 16.552 47.0219 16.04C46.4139 15.512 45.6699 15.248 44.7899 15.248C43.9579 15.248 43.2539 15.504 42.6779 16.016C42.1179 16.512 41.7739 17.208 41.6459 18.104H47.9579ZM47.4539 9.2L41.9339 11.72V9.32L47.4539 6.464V9.2ZM58.9784 26.216C57.8904 26.216 56.9144 26.024 56.0504 25.64C55.1864 25.24 54.4984 24.704 53.9864 24.032C53.4904 23.36 53.2184 22.616 53.1704 21.8H56.5544C56.6184 22.312 56.8664 22.736 57.2984 23.072C57.7464 23.408 58.2984 23.576 58.9544 23.576C59.5944 23.576 60.0904 23.448 60.4424 23.192C60.8104 22.936 60.9944 22.608 60.9944 22.208C60.9944 21.776 60.7704 21.456 60.3224 21.248C59.8904 21.024 59.1944 20.784 58.2344 20.528C57.2424 20.288 56.4264 20.04 55.7864 19.784C55.1624 19.528 54.6184 19.136 54.1544 18.608C53.7064 18.08 53.4824 17.368 53.4824 16.472C53.4824 15.736 53.6904 15.064 54.1064 14.456C54.5384 13.848 55.1464 13.368 55.9304 13.016C56.7304 12.664 57.6664 12.488 58.7384 12.488C60.3224 12.488 61.5864 12.888 62.5304 13.688C63.4744 14.472 63.9944 15.536 64.0904 16.88H60.8744C60.8264 16.352 60.6024 15.936 60.2024 15.632C59.8184 15.312 59.2984 15.152 58.6424 15.152C58.0344 15.152 57.5624 15.264 57.2264 15.488C56.9064 15.712 56.7464 16.024 56.7464 16.424C56.7464 16.872 56.9704 17.216 57.4184 17.456C57.8664 17.68 58.5624 17.912 59.5064 18.152C60.4664 18.392 61.2584 18.64 61.8824 18.896C62.5064 19.152 63.0424 19.552 63.4904 20.096C63.9544 20.624 64.1944 21.328 64.2104 22.208C64.2104 22.976 63.9944 23.664 63.5624 24.272C63.1464 24.88 62.5384 25.36 61.7384 25.712C60.9544 26.048 60.0344 26.216 58.9784 26.216ZM70.8805 15.464V21.896C70.8805 22.344 70.9845 22.672 71.1925 22.88C71.4165 23.072 71.7845 23.168 72.2965 23.168H73.8565V26H71.7445C68.9125 26 67.4965 24.624 67.4965 21.872V15.464H65.9125V12.704H67.4965V9.416H70.8805V12.704H73.8565V15.464H70.8805ZM79.6332 14.768C80.0652 14.064 80.6252 13.512 81.3132 13.112C82.0172 12.712 82.8172 12.512 83.7132 12.512V16.04H82.8252C81.7692 16.04 80.9692 16.288 80.4252 16.784C79.8972 17.28 79.6332 18.144 79.6332 19.376V26H76.2732V12.704H79.6332V14.768ZM98.5283 12.704V26H95.1443V24.32C94.7123 24.896 94.1443 25.352 93.4403 25.688C92.7523 26.008 92.0003 26.168 91.1843 26.168C90.1443 26.168 89.2243 25.952 88.4243 25.52C87.6243 25.072 86.9923 24.424 86.5283 23.576C86.0803 22.712 85.8563 21.688 85.8563 20.504V12.704H89.2163V20.024C89.2163 21.08 89.4803 21.896 90.0083 22.472C90.5363 23.032 91.2563 23.312 92.1683 23.312C93.0963 23.312 93.8243 23.032 94.3523 22.472C94.8803 21.896 95.1443 21.08 95.1443 20.024V12.704H98.5283ZM100.979 19.352C100.979 17.976 101.26 16.776 101.82 15.752C102.38 14.712 103.156 13.912 104.148 13.352C105.14 12.776 106.276 12.488 107.556 12.488C109.204 12.488 110.564 12.904 111.636 13.736C112.724 14.552 113.452 15.704 113.82 17.192H110.196C110.004 16.616 109.676 16.168 109.212 15.848C108.764 15.512 108.204 15.344 107.532 15.344C106.572 15.344 105.812 15.696 105.252 16.4C104.692 17.088 104.412 18.072 104.412 19.352C104.412 20.616 104.692 21.6 105.252 22.304C105.812 22.992 106.572 23.336 107.532 23.336C108.892 23.336 109.78 22.728 110.196 21.512H113.82C113.452 22.952 112.724 24.096 111.636 24.944C110.548 25.792 109.188 26.216 107.556 26.216C106.276 26.216 105.14 25.936 104.148 25.376C103.156 24.8 102.38 24 101.82 22.976C101.26 21.936 100.979 20.728 100.979 19.352ZM120.193 15.464V21.896C120.193 22.344 120.297 22.672 120.505 22.88C120.729 23.072 121.097 23.168 121.609 23.168H123.169V26H121.057C118.225 26 116.809 24.624 116.809 21.872V15.464H115.225V12.704H116.809V9.416H120.193V12.704H123.169V15.464H120.193ZM127.29 11.12C126.698 11.12 126.202 10.936 125.802 10.568C125.418 10.184 125.226 9.712 125.226 9.152C125.226 8.592 125.418 8.128 125.802 7.76C126.202 7.376 126.698 7.184 127.29 7.184C127.882 7.184 128.37 7.376 128.754 7.76C129.154 8.128 129.354 8.592 129.354 9.152C129.354 9.712 129.154 10.184 128.754 10.568C128.37 10.936 127.882 11.12 127.29 11.12ZM128.946 12.704V26H125.586V12.704H128.946ZM138.169 26.216C136.889 26.216 135.737 25.936 134.713 25.376C133.689 24.8 132.881 23.992 132.289 22.952C131.713 21.912 131.425 20.712 131.425 19.352C131.425 17.992 131.721 16.792 132.313 15.752C132.921 14.712 133.745 13.912 134.785 13.352C135.825 12.776 136.985 12.488 138.265 12.488C139.545 12.488 140.705 12.776 141.745 13.352C142.785 13.912 143.601 14.712 144.193 15.752C144.801 16.792 145.105 17.992 145.105 19.352C145.105 20.712 144.793 21.912 144.169 22.952C143.561 23.992 142.729 24.8 141.673 25.376C140.633 25.936 139.465 26.216 138.169 26.216ZM138.169 23.288C138.777 23.288 139.345 23.144 139.873 22.856C140.417 22.552 140.849 22.104 141.169 21.512C141.489 20.92 141.649 20.2 141.649 19.352C141.649 18.088 141.313 17.12 140.641 16.448C139.985 15.76 139.177 15.416 138.217 15.416C137.257 15.416 136.449 15.76 135.793 16.448C135.153 17.12 134.833 18.088 134.833 19.352C134.833 20.616 135.145 21.592 135.769 22.28C136.409 22.952 137.209 23.288 138.169 23.288ZM154.938 12.512C156.522 12.512 157.802 13.016 158.778 14.024C159.754 15.016 160.242 16.408 160.242 18.2V26H156.882V18.656C156.882 17.6 156.618 16.792 156.09 16.232C155.562 15.656 154.842 15.368 153.93 15.368C153.002 15.368 152.266 15.656 151.722 16.232C151.194 16.792 150.93 17.6 150.93 18.656V26H147.57V12.704H150.93V14.36C151.378 13.784 151.946 13.336 152.634 13.016C153.338 12.68 154.106 12.512 154.938 12.512Z" fill="#FE9101"/>
<path d="M113.394 105.883L113.444 105.759C116.346 98.22 118.801 91.9704 119.421 90.7552C121.008 87.7048 125.67 86.1176 128.746 85.076L128.994 84.9768C129.043 84.952 133.73 82.9432 148.04 82.7448V77.7848C133.532 77.9832 128.15 79.9424 127.059 80.4136C123.215 81.728 117.486 83.6872 115.006 88.4984C113.345 91.7472 102.334 121.11 101.069 124.434L100.92 124.855V157.12C100.92 161.212 104.268 164.56 108.36 164.56H118.28C122.372 164.56 125.72 161.212 125.72 157.12V152.16H148.04V114.96H120.76C116.544 114.96 113.568 113.968 112.576 112.48C111.41 110.769 112.65 107.718 113.246 106.23L113.394 105.883ZM115.8 124.88H125.72C129.837 124.88 133.16 128.203 133.16 132.32C133.16 136.437 129.837 139.76 125.72 139.76C121.554 139.76 120.289 138.694 115.998 136.238C113.122 134.626 110.84 133.089 110.84 129.84C110.84 127.112 113.072 124.88 115.8 124.88ZM97.9688 118.606C98.44 112.48 91 119.92 91 119.92C91 119.92 90.6032 111.042 88.52 110C83.56 107.52 77.5088 115.109 77.5088 115.109L66.2 100.08C63.8688 96.9552 60.1736 95.12 56.28 95.12H33.96V152.16H66.4232C67.6136 159.203 73.7392 164.56 81.08 164.56C88.4208 164.56 94.5464 159.203 95.7368 152.16H95.96V123.962L96.2824 123.119L96.4312 122.698C96.828 121.681 97.9192 118.829 98.0432 118.457C98.0184 118.432 97.9936 118.482 97.9688 118.606ZM81.08 159.6C75.5744 159.6 71.16 155.186 71.16 149.68C71.16 144.174 75.5744 139.76 81.08 139.76C86.5856 139.76 91 144.174 91 149.68C91 155.186 86.5856 159.6 81.08 159.6ZM107.633 88.4066L96.9867 77.76L105.153 69.5934C105.927 68.8196 106.103 67.6317 105.587 66.6695C105.071 65.7072 103.998 65.1914 102.914 65.4071L91.8159 67.6267L85.3133 61.1242C84.7057 60.5141 83.8278 60.2661 82.9896 60.4645C82.1513 60.6629 81.4792 61.2779 81.2064 62.0939L79.7209 66.5455L62.5544 55.817C61.5723 55.2069 60.3075 55.3507 59.4866 56.1667C58.6707 56.9826 58.5244 58.2548 59.1369 59.2344L70.6367 77.6335L64.216 86.192C63.6505 86.9435 63.5612 87.9479 63.9804 88.7886C64.402 89.6293 65.26 90.16 66.2 90.16H76.921L81.256 101.003C81.6355 101.942 82.5456 102.56 83.56 102.56C84.5743 102.56 85.4844 101.942 85.8639 101.003L90.0997 90.4105L105.53 92.6152C106.604 92.769 107.623 92.2234 108.1 91.2711C108.576 90.3138 108.39 89.1606 107.633 88.4066Z" fill="#FE9101"/>
<path d="M135.046 67.072C135.958 67.072 136.758 66.872 137.446 66.472C138.134 66.072 138.678 65.488 139.078 64.72H142.918C142.358 66.432 141.374 67.768 139.966 68.728C138.574 69.672 136.942 70.144 135.07 70.144C133.15 70.144 131.462 69.632 130.006 68.608C128.566 67.568 127.566 66.184 127.006 64.456H124.966V62.464H126.622C126.59 62.08 126.574 61.792 126.574 61.6C126.574 61.376 126.59 61.072 126.622 60.688H124.966V58.696H127.03C127.59 56.968 128.59 55.592 130.03 54.568C131.486 53.544 133.166 53.032 135.07 53.032C136.942 53.032 138.574 53.512 139.966 54.472C141.374 55.432 142.358 56.76 142.918 58.456H139.078C138.678 57.688 138.134 57.112 137.446 56.728C136.758 56.328 135.958 56.128 135.046 56.128C134.07 56.128 133.198 56.352 132.43 56.8C131.678 57.248 131.094 57.88 130.678 58.696H135.286V60.688H130.078C130.046 61.072 130.03 61.376 130.03 61.6C130.03 61.792 130.046 62.08 130.078 62.464H135.286V64.456H130.654C131.07 65.272 131.662 65.912 132.43 66.376C133.198 66.84 134.07 67.072 135.046 67.072Z" fill="black"/>
<rect width="31.9485" height="3.08457" transform="matrix(0.671712 -0.740813 0.701859 0.712315 123 75.0736)" fill="#FE9101"/>
</svg>
