<svg width="146" height="146" viewBox="0 0 146 146" fill="none" xmlns="http://www.w3.org/2000/svg">
<path d="M27.375 29.6562L0 75.2812V82.6953L6.84375 84.4062V103.797L18.25 109.5H29.6562C29.6562 100.681 36.8057 93.5312 45.625 93.5312C54.4443 93.5312 61.5938 100.681 61.5938 109.5H95.8125C95.8125 100.681 102.962 93.5312 111.781 93.5312C120.382 93.5312 127.377 100.338 127.719 108.854L139.156 107.219V95.8125C137.897 95.8125 136.875 94.7905 136.875 93.5312V88.9688C136.875 87.7095 137.897 86.6875 139.156 86.6875V76.5823L114.062 73V52.4688H130.357L127.839 46.5919C126.402 43.2384 123.102 41.0625 119.449 41.0625H93.5312L91.25 88.9688H29.6562V84.4062H86.6875V29.6562H70.5984L68.4375 70.7188H63.875V29.6562H47.7859L45.625 70.7188H41.0625V29.6562H27.375ZM45.625 98.0938C39.3265 98.0938 34.2188 103.201 34.2188 109.5C34.2188 115.799 39.3265 120.906 45.625 120.906C51.9235 120.906 57.0312 115.799 57.0312 109.5C57.0312 103.201 51.9235 98.0938 45.625 98.0938ZM111.781 98.0938C105.483 98.0938 100.375 103.201 100.375 109.5C100.375 115.799 105.483 120.906 111.781 120.906C118.08 120.906 123.188 115.799 123.188 109.5C123.188 103.201 118.08 98.0938 111.781 98.0938ZM45.625 104.938C48.1458 104.938 50.1875 106.979 50.1875 109.5C50.1875 112.021 48.1458 114.062 45.625 114.062C43.1042 114.062 41.0625 112.021 41.0625 109.5C41.0625 106.979 43.1042 104.938 45.625 104.938ZM111.781 104.938C114.302 104.938 116.344 106.979 116.344 109.5C116.344 112.021 114.302 114.062 111.781 114.062C109.26 114.062 107.219 112.021 107.219 109.5C107.219 106.979 109.26 104.938 111.781 104.938Z" fill="black"/>
</svg>
